# xmcd
#
# Track frame offsets:
#	150
#	22002
#	41186
#	61800
#	79348
#	93160
#	113451
#	131481
#	149832
#	169372
#	188357
#	207375
#	223449
#
# Disc length: 3403 seconds
#
# Revision: 1
# Processed by: cddbd v1.5.2PL0 Copyright (c) Steve Scherf et al.
# Submitted via: audiograbber 1.83.01
#
DISCID=c20d490d
DTITLE=Hazeldine - Double back
DYEAR=2001
DGENRE=Rock
TTITLE0=When you sleep
TTITLE1=Valentine
TTITLE2=Body and soul
TTITLE3=Sunset Strip
TTITLE4=Miss Ordinary
TTITLE5=Smaller
TTITLE6=Fletcher's Bar
TTITLE7=Broken glass
TTITLE8=Double back
TTITLE9=Twisted
TTITLE10=Say goodbye
TTITLE11=My lady
TTITLE12=Rostock
EXTD=
EXTT0=
EXTT1=
EXTT2=
EXTT3=
EXTT4=
EXTT5=
EXTT6=
EXTT7=
EXTT8=
EXTT9=
EXTT10=
EXTT11=
EXTT12=
PLAYORDER=
